<svg width="146" height="33" viewBox="0 0 146 33" xmlns="http://www.w3.org/2000/svg" xmlns:xlink="http://www.w3.org/1999/xlink">
    <title>Politi Logo</title>
    <defs>
        <path id="path-1" d="M0 33h146V0H0z"/>
    </defs>
    <g id="Logo-versioner" fill="none" fill-rule="evenodd">
        <g id="logo" transform="translate(0 -1)">
            <path d="M0 2h16.808C28.25 2 29 3.773 29 13.193c0 10.57-1.367 12.078-11.312 12.078H12.6l2.367-7.325h.036c3.872 0 3.872-.044 3.872-4.488 0-4.217-.13-4.308-4.003-4.308h-4.75V33H0V2z" id="Fill-1" fill="#000"/>
            <path d="M47.25 26.508c4.456 0 4.666.048 4.666-9.03 0-9.085-.21-9.04-4.667-9.04-4.423 0-4.627-.045-4.627 9.04 0 9.078.204 9.03 4.626 9.03M47.25 1c11.193 0 14.284.55 14.284 16.477 0 15.924-3.303 16.47-14.285 16.47C36.3 33.947 33 33.4 33 17.477 33 1.55 36.098 1 47.25 1" id="Fill-3" fill="#000"/>
            <path id="Fill-6" fill="#000" d="M85 33H66V2h9.54v23.002H85z"/>
            <mask id="mask-2" fill="#FFF">
                <use xlink:href="#path-1"/>
            </mask>
            <path id="Fill-8" fill="#000" mask="url(#mask-2)" d="M89 33h11V2H89z"/>
            <path id="Fill-10" fill="#000" mask="url(#mask-2)" d="M123.456 9.993V33h-9.917V9.993H105V2h27v7.993z"/>
            <path id="Fill-11" fill="#000" mask="url(#mask-2)" d="M135 33h11V2h-11z"/>
        </g>
    </g>
</svg>